<svg xmlns="http://www.w3.org/2000/svg" viewBox="0 0 1536 1024" role="img" aria-label="OutreachOps logo">
  <defs>
    <linearGradient id="tileGrad" x1="0" y1="0" x2="1" y2="1">
      <stop offset="0" stop-color="#5ea7b0"/>
      <stop offset="1" stop-color="#2d7f88"/>
    </linearGradient>
    <linearGradient id="shadowGrad" x1="0" y1="0" x2="1" y2="1">
      <stop offset="0" stop-color="#7bc0c7" stop-opacity=".35"/>
      <stop offset="1" stop-color="#1f5f66" stop-opacity=".05"/>
    </linearGradient>
  </defs>

  <g transform="translate(510 250)">
    <g fill="url(#tileGrad)">
      <path d="M20 40h110l-10 55H8z"/><path d="M145 40h110l-8 55H132z"/><path d="M262 40h90l2 55h-95z"/>
      <path d="M372 40h100l5 55H365z"/><path d="M485 40h98l10 55H488z"/>
      <path d="M0 106h118l-12 58H0z"/><path d="M126 106h124l-10 58H112z"/><path d="M260 106h104l0 58H250z"/>
      <path d="M374 106h114l8 58H370z"/><path d="M500 106h108l18 58H512z"/>
      <path d="M0 178h120l-10 58H6z"/><path d="M132 178h124l-10 58H122z"/><path d="M266 178h104v58H258z"/>
      <path d="M384 178h112l10 58H380z"/><path d="M510 178h114l16 58H516z"/>
      <path d="M12 248h114l-12 58H0z"/><path d="M136 248h122l-10 58H126z"/><path d="M268 248h104v58H260z"/>
      <path d="M382 248h112l8 58H378z"/><path d="M508 248h114l18 58H514z"/>
    </g>

    <g fill="#e6a437">
      <path d="M278 40h102l2 55H278z"/>
      <path d="M420 178h106l10 58H418z"/>
    </g>

    <path d="M172 38c0-41 30-70 69-70s69 29 69 70c0 28-17 55-31 76l-38 58-38-58c-15-23-31-48-31-76z" fill="none" stroke="#2b8c95" stroke-width="16" stroke-linejoin="round"/>
    <circle cx="241" cy="37" r="24" fill="#2b8c95"/>
    <circle cx="241" cy="37" r="13" fill="#6dbac1"/>

    <g transform="translate(430 -6)">
      <circle cx="118" cy="68" r="70" fill="#e5e7eb"/>
      <rect x="105" y="28" width="26" height="78" fill="#2b8c95"/>
      <rect x="80" y="53" width="78" height="26" fill="#2b8c95"/>
    </g>

    <g transform="translate(-75 160)">
      <path d="M35 44l70-18c18-4 34 8 38 27l10 48c4 18-8 34-26 38l-74 18c-19 5-36-8-40-26L1 84C-3 65 16 49 35 44z" fill="#e6a437"/>
      <path d="M116 28c25-6 49 10 55 35l12 54c6 24-9 49-34 56l-18 4-30-141z" fill="#f4f6f8"/>
      <rect x="18" y="154" width="20" height="42" rx="9" fill="#e6a437"/>
      <circle cx="127" cy="102" r="16" fill="#e6a437"/>
      <circle cx="127" cy="102" r="6" fill="#f9fafb"/>
    </g>

    <path d="M0 306c80-16 170-26 280-26 106 0 230 10 360 30v16H0z" fill="url(#shadowGrad)"/>
  </g>

  <text x="768" y="812" text-anchor="middle" fill="#f3f4f6" font-size="112" font-weight="500" font-family="Inter, Segoe UI, Arial, sans-serif" letter-spacing="1">Outreach</text>
  <text x="768" y="812" text-anchor="middle" fill="none" stroke="#c8ced8" stroke-width="3" font-size="112" font-weight="500" font-family="Inter, Segoe UI, Arial, sans-serif" letter-spacing="1">Outreach</text>
</svg>
